<?xml version="1.0" encoding="UTF-8"?>
<svg id="_レイヤー_1" data-name="レイヤー 1" xmlns="http://www.w3.org/2000/svg" viewBox="0 0 20.03 19">
  <defs>
    <style>
      .cls-1 {
        fill: #dd9004;
      }
    </style>
  </defs>
  <path class="cls-1" d="M5.63,4.4l2.8-3.63c.2-.27.44-.46.71-.59s.56-.19.86-.19.59.06.86.19.51.32.71.59l2.8,3.63,4.25,1.43c.43.13.78.38,1.03.74s.38.75.38,1.19c0,.2-.03.4-.09.6s-.15.39-.29.58l-2.75,3.9.1,4.1c.02.58-.18,1.08-.58,1.48s-.87.6-1.4.6c-.03,0-.22-.03-.55-.08l-4.48-1.25-4.48,1.25c-.08.03-.18.05-.28.06s-.19.01-.28.01c-.53,0-1-.2-1.4-.6s-.59-.89-.58-1.48l.1-4.13L.38,8.93c-.13-.18-.23-.38-.29-.58s-.09-.4-.09-.6c0-.42.12-.8.36-1.16s.58-.61,1.01-.76l4.25-1.43ZM6.85,6.13l-4.85,1.6,3.1,4.48-.1,4.78,5-1.38,5,1.4-.1-4.8,3.1-4.43-4.85-1.65-3.15-4.13-3.15,4.13Z"/>
  <polygon class="cls-1" points="9.63 1.11 5.92 5.57 1.18 7.4 3.48 11.67 4.75 17.68 9.63 16.51 15.64 17.49 15.83 12.89 19.25 7.45 14.32 5.62 9.63 1.11"/>
</svg>